<svg width="87" height="64" viewBox="0 0 87 64" fill="none" xmlns="http://www.w3.org/2000/svg">
<path d="M1.10998 61.1916H3.48355V62.2509H0V56.6332H3.44334V57.6926H1.11076V58.8883H3.24304V59.9316H1.11076L1.10998 61.1916Z" fill="#2D2C2C"/>
<path d="M12.7768 56.6356C13.1384 56.627 13.4977 56.6948 13.8312 56.8345C14.1648 56.9742 14.4649 57.1826 14.712 57.4462C15.2107 57.9929 15.4871 58.7056 15.4871 59.4448C15.4871 60.1841 15.2107 60.8968 14.712 61.4435C14.465 61.7072 14.1649 61.9158 13.8313 62.0557C13.4978 62.1955 13.1385 62.2634 12.7768 62.2549H10.5399V56.6372L12.7768 56.6356ZM12.7768 61.1956C12.9984 61.2036 13.2192 61.1645 13.4244 61.0807C13.6297 60.997 13.8147 60.8706 13.9672 60.71C14.2636 60.3551 14.426 59.9076 14.426 59.4456C14.426 58.9836 14.2636 58.5362 13.9672 58.1812C13.8147 58.0206 13.6297 57.8943 13.4244 57.8105C13.2192 57.7268 12.9984 57.6877 12.7768 57.6957H11.6507V61.1915L12.7768 61.1956Z" fill="#2D2C2C"/>
<path d="M24.6117 62.3672C24.0487 62.3896 23.4977 62.2007 23.0674 61.8376C22.8673 61.6603 22.7092 61.4408 22.6047 61.1949C22.5002 60.9491 22.452 60.6831 22.4634 60.4163V56.6356H23.5661V60.3272C23.5593 60.4547 23.5782 60.5823 23.6217 60.7024C23.6653 60.8224 23.7325 60.9326 23.8195 61.0262C24.05 61.1931 24.3274 61.2829 24.6121 61.2829C24.8969 61.2829 25.1744 61.1931 25.4048 61.0262C25.4918 60.9326 25.559 60.8224 25.6026 60.7024C25.6461 60.5823 25.665 60.4547 25.6582 60.3272V56.6356H26.7682V60.4163C26.7797 60.683 26.7315 60.949 26.6272 61.1948C26.5228 61.4407 26.3649 61.6602 26.1649 61.8376C25.7319 62.2019 25.1777 62.3908 24.6117 62.3672Z" fill="#2D2C2C"/>
<path d="M36.712 62.3672C36.3227 62.3793 35.9351 62.3106 35.5738 62.1656C35.2124 62.0205 34.8852 61.8023 34.6128 61.5245C34.0803 60.9618 33.7836 60.2171 33.7836 59.4432C33.7836 58.6693 34.0803 57.9246 34.6128 57.3618C34.8859 57.0852 35.2133 56.868 35.5746 56.7237C35.9358 56.5793 36.3231 56.5111 36.712 56.5232C37.2058 56.5193 37.6922 56.6423 38.1244 56.8804C38.5426 57.1058 38.8915 57.4403 39.1339 57.8482L38.1767 58.4019C38.0393 58.1523 37.8326 57.9474 37.5815 57.812C37.2292 57.6318 36.8299 57.564 36.4377 57.6179C36.0455 57.6717 35.6793 57.8445 35.3889 58.113C35.0641 58.4797 34.8849 58.9522 34.8849 59.4416C34.8849 59.931 35.0641 60.4035 35.3889 60.7702C35.562 60.9423 35.7689 61.0768 35.9966 61.1652C36.2243 61.2536 36.4679 61.294 36.712 61.2838C37.0163 61.2881 37.3167 61.2149 37.5848 61.0711C37.8348 60.9393 38.0404 60.737 38.1759 60.4893L39.1331 61.043C38.8916 61.45 38.5441 61.7842 38.1277 62.0101C37.6946 62.249 37.2069 62.3721 36.712 62.3672Z" fill="#2D2C2C"/>
<path d="M49.7719 62.2549L49.414 61.2437H47.0999L46.7621 62.2549H45.5637L47.5351 56.6372H48.9105L50.8972 62.2549H49.7719ZM47.4619 60.2076H49.0472L48.234 57.9116L47.4619 60.2076Z" fill="#2D2C2C"/>
<path d="M60.1904 61.2838C60.4947 61.2881 60.795 61.2149 61.0631 61.0711C61.3131 60.9392 61.5186 60.7369 61.6542 60.4893L62.6114 61.043C62.408 61.3851 62.1287 61.6761 61.795 61.8937C61.4513 62.1196 61.0633 62.2701 60.6569 62.3351V62.624C60.8076 62.6576 60.9465 62.7311 61.059 62.8367C61.1142 62.8901 61.1573 62.9545 61.1857 63.0258C61.2142 63.097 61.2272 63.1734 61.2239 63.2499C61.2239 63.8122 60.6341 64.0584 59.4544 63.9883V63.258C60.0335 63.2954 60.3231 63.242 60.3231 63.0975C60.3231 62.9905 60.1542 62.9236 59.8164 62.8969V62.3431C59.1043 62.2778 58.4453 61.9398 57.9777 61.4001C57.4983 60.8295 57.2455 60.1032 57.267 59.3589C57.2884 58.6146 57.5828 57.9041 58.0943 57.3619C58.3675 57.0852 58.6951 56.8679 59.0565 56.7236C59.4179 56.5793 59.8053 56.5111 60.1944 56.5232C60.6881 56.5193 61.1746 56.6423 61.6068 56.8804C62.0249 57.1058 62.3738 57.4403 62.6162 57.8482L61.6591 58.4019C61.5216 58.1524 61.315 57.9475 61.0639 57.8121C60.7116 57.6318 60.3123 57.5641 59.92 57.6179C59.5278 57.6717 59.1617 57.8446 58.8713 58.113C58.5465 58.4797 58.3672 58.9522 58.3672 59.4416C58.3672 59.931 58.5465 60.4035 58.8713 60.7702C59.0439 60.9418 59.2501 61.076 59.4771 61.1644C59.7041 61.2528 59.9469 61.2934 60.1904 61.2838Z" fill="#2D2C2C"/>
<path d="M73.2494 62.2557L72.8915 61.2445H70.5774L70.2396 62.2557H69.0412L71.0126 56.638H72.3879L74.3747 62.2557H73.2494ZM71.607 55.9615C71.4515 55.8545 71.3415 55.8117 71.2772 55.8331C71.2128 55.8545 71.1806 55.9615 71.1806 56.1541H70.3442C70.3383 55.9412 70.3654 55.7287 70.4246 55.5241C70.4651 55.3764 70.5443 55.2421 70.6539 55.1349C70.7478 55.0504 70.8633 54.9934 70.9876 54.9704C71.1214 54.9461 71.2591 54.953 71.3898 54.9905C71.5385 55.0323 71.6796 55.0973 71.808 55.1831C71.9635 55.2901 72.0722 55.3328 72.1338 55.3114C72.1955 55.29 72.2263 55.1831 72.2263 54.9905H73.0709C73.08 55.2471 73.0347 55.5028 72.9382 55.7408C72.8756 55.9081 72.7521 56.0457 72.5922 56.126C72.4451 56.1882 72.2826 56.205 72.1258 56.1742C71.9405 56.1381 71.7641 56.0659 71.607 55.9615ZM70.9394 60.2084H72.5247L71.714 57.914L70.9394 60.2084Z" fill="#2D2C2C"/>
<path d="M85.7358 61.5206C85.2541 62.0082 84.6176 62.3139 83.9351 62.3853C83.2526 62.4567 82.5664 62.2895 81.9937 61.9122C81.4211 61.5349 80.9975 60.9709 80.7953 60.3166C80.5931 59.6623 80.6247 58.9582 80.885 58.3247C81.1453 57.6911 81.618 57.1674 82.2223 56.8429C82.8266 56.5184 83.525 56.4134 84.1984 56.5457C84.8717 56.678 85.4781 57.0394 85.914 57.5682C86.3499 58.0971 86.5883 58.7605 86.5884 59.4452C86.5958 59.8309 86.5239 60.214 86.3773 60.5709C86.2306 60.9278 86.0124 61.251 85.7358 61.5206ZM82.3641 60.7662C82.7131 61.0985 83.177 61.2838 83.6594 61.2838C84.1419 61.2838 84.6057 61.0985 84.9548 60.7662C85.2919 60.4073 85.4795 59.9339 85.4795 59.442C85.4795 58.9501 85.2919 58.4768 84.9548 58.1179C84.607 57.7832 84.1426 57.5962 83.6594 57.5962C83.1762 57.5962 82.7119 57.7832 82.3641 58.1179C82.0272 58.4768 81.8397 58.9502 81.8397 59.442C81.8397 59.9338 82.0272 60.4072 82.3641 60.7662Z" fill="#2D2C2C"/>
<path d="M44.4321 18.08H22.2165V26.6156H44.4321V18.08Z" fill="#ADAAA9"/>
<path d="M26.4939 22.3478H17.939V44.5135H26.4939V22.3478Z" fill="#00A0A6"/>
<path d="M26.4906 26.6157H0.000793457V18.0776H17.9373V0.181396H26.4906V26.6157Z" fill="#CE002E"/>
<path d="M86.8572 0.18219H78.3023V44.5135H86.8572V0.18219Z" fill="#2D2C2C"/>
<path d="M64.2882 44.6957C59.8583 44.6957 55.5278 43.385 51.8445 40.9294C48.1611 38.4738 45.2903 34.9835 43.595 30.9C41.8998 26.8165 41.4562 22.3231 42.3205 17.988C43.1847 13.6529 45.3179 9.67094 48.4503 6.54554C51.5828 3.42014 55.5737 1.29171 59.9186 0.429417C64.2634 -0.432879 68.7669 0.00968391 72.8597 1.70114C76.9524 3.39259 80.4505 6.25695 82.9116 9.93204C85.3728 13.6071 86.6864 17.9279 86.6864 22.3478C86.6798 28.2728 84.3179 33.9533 80.1189 38.1429C75.9198 42.3325 70.2266 44.6891 64.2882 44.6957ZM64.2882 8.53563C61.5503 8.53563 58.8738 9.3457 56.5973 10.8634C54.3208 12.3811 52.5464 14.5383 51.4987 17.0621C50.4509 19.586 50.1767 22.3632 50.7109 25.0425C51.245 27.7218 52.5635 30.1829 54.4995 32.1145C56.4356 34.0462 58.9022 35.3617 61.5876 35.8946C64.2729 36.4276 67.0563 36.1541 69.5858 35.1087C72.1154 34.0632 74.2774 32.2929 75.7985 30.0215C77.3196 27.7501 78.1315 25.0796 78.1315 22.3478C78.1275 18.6859 76.6677 15.175 74.0725 12.5856C71.4772 9.99617 67.9585 8.53967 64.2882 8.53563Z" fill="#2D2C2C"/>
</svg>
